<?xml version="1.0" encoding="utf-8"?>
<svg width="100.787" height="129.076" viewBox="0 0 100.787 129.076" fill="none" xmlns="http://www.w3.org/2000/svg">
  <path d="M18.7879 63.3976L18.7879 63.3976ZM43.5539 47.6984L43.2784 47.5226Q42.8294 47.2362 42.3624 46.9803Q41.8953 46.7245 41.4122 46.5004Q40.9291 46.2764 40.4321 46.085Q39.9351 45.8937 39.4265 45.736Q38.9178 45.5784 38.3998 45.455Q37.8817 45.3316 37.3566 45.2431Q36.8315 45.1546 36.3016 45.1014Q35.7717 45.0482 35.2395 45.0305Q34.7072 45.0128 34.175 45.0306Q33.6427 45.0485 33.1129 45.1019Q32.583 45.1553 32.0579 45.2439Q31.5328 45.3325 31.0148 45.4561Q30.4968 45.5796 29.9882 45.7374Q29.4796 45.8953 28.9826 46.0867Q28.4857 46.2782 28.0027 46.5024Q27.5196 46.7266 27.0526 46.9826Q26.5857 47.2385 26.1368 47.5251Q25.688 47.8117 25.2593 48.1277Q24.8306 48.4436 24.4239 48.7874Q24.0173 49.1313 23.6345 49.5015Q23.2517 49.8718 22.8945 50.2668Q22.5373 50.6617 22.2073 51.0797Q21.8773 51.4977 21.5759 51.9367Q21.2746 52.3758 21.0032 52.834Q20.7318 53.2922 20.4917 53.7675Q20.2515 54.2428 20.0436 54.7331Q19.8358 55.2234 19.6611 55.7265Q19.4864 56.2296 19.3457 56.7432Q19.2051 57.2568 19.099 57.7787Q18.9929 58.3005 18.922 58.8283Q18.851 59.3561 18.8154 59.8875Q18.7798 60.4188 18.7798 60.9514L18.7798 94.803L18.7798 94.803L43.5539 78.9948Q44.0444 78.6817 44.5144 78.3386Q44.9844 77.9955 45.432 77.6236Q45.8795 77.2517 46.3029 76.8525Q46.7263 76.4533 47.1239 76.0284Q47.5214 75.6034 47.8916 75.1544Q48.2618 74.7054 48.6031 74.2341Q48.9444 73.7628 49.2555 73.271Q49.5666 72.7793 49.8463 72.269Q50.126 71.7587 50.3732 71.2319Q50.6204 70.7051 50.8341 70.1639Q51.0479 69.6226 51.2273 69.0691Q51.4066 68.5155 51.551 67.9518Q51.6954 67.3881 51.8042 66.8164Q51.9129 66.2448 51.9857 65.6674Q52.0584 65.0901 52.0949 64.5093Q52.1313 63.9285 52.1313 63.3466Q52.1313 62.7647 52.0949 62.1839Q52.0584 61.6032 51.9857 61.0258Q51.9129 60.4485 51.8042 59.8768Q51.6954 59.3051 51.551 58.7414Q51.4066 58.1777 51.2272 57.6241Q51.0479 57.0706 50.8341 56.5293Q50.6204 55.9881 50.3732 55.4613Q50.126 54.9345 49.8463 54.4242Q49.5666 53.9139 49.2555 53.4222Q48.9444 52.9304 48.6031 52.4591Q48.2618 51.9878 47.8916 51.5388Q47.5214 51.0898 47.1239 50.6648Q46.7263 50.2399 46.3029 49.8407Q45.8795 49.4415 45.432 49.0696Q44.9844 48.6977 44.5144 48.3546Q44.0444 48.0114 43.5539 47.6984ZM4.45755 0.45343L99.444 60.8994Q99.5208 60.9483 99.5944 61.0019Q99.668 61.0555 99.7381 61.1136Q99.8082 61.1717 99.8745 61.2341Q99.9408 61.2965 100.003 61.3629Q100.065 61.4293 100.123 61.4995Q100.181 61.5697 100.235 61.6434Q100.288 61.7171 100.337 61.794Q100.386 61.8709 100.429 61.9507Q100.473 62.0305 100.512 62.1129Q100.551 62.1953 100.584 62.2799Q100.618 62.3646 100.646 62.4512Q100.674 62.5378 100.696 62.6259Q100.719 62.7141 100.736 62.8035Q100.753 62.893 100.764 62.9833Q100.776 63.0736 100.782 63.1645Q100.787 63.2553 100.787 63.3464Q100.787 63.4374 100.782 63.5282Q100.776 63.6191 100.764 63.7094Q100.753 63.7997 100.736 63.8892Q100.719 63.9786 100.696 64.0668Q100.674 64.155 100.646 64.2416Q100.618 64.3281 100.584 64.4128Q100.551 64.4975 100.512 64.5798Q100.473 64.6622 100.429 64.742Q100.386 64.8218 100.337 64.8987Q100.288 64.9756 100.235 65.0493Q100.181 65.123 100.123 65.1932Q100.065 65.2634 100.003 65.3298Q99.9408 65.3962 99.8745 65.4586Q99.8082 65.521 99.7381 65.5791Q99.668 65.6372 99.5944 65.6908Q99.5208 65.7444 99.444 65.7933L0 129.076L0 129.076L0 2.90039Q0 2.80348 0.00646828 2.70679Q0.0129366 2.61011 0.0258443 2.51406Q0.038752 2.41802 0.0580415 2.32305Q0.0773311 2.22809 0.102916 2.13462Q0.128502 2.04115 0.160269 1.9496Q0.192036 1.85805 0.229843 1.76882Q0.26765 1.6796 0.311329 1.59309Q0.355007 1.50659 0.404362 1.42319Q0.453717 1.3398 0.508529 1.25988Q0.56334 1.17997 0.623364 1.10389Q0.683387 1.02781 0.748355 0.955908Q0.813322 0.884005 0.882944 0.816599Q0.952567 0.749194 1.02653 0.686585Q1.1005 0.623977 1.17848 0.566446Q1.25646 0.508914 1.3381 0.456716Q1.41975 0.404517 1.5047 0.357885Q1.58965 0.311253 1.67752 0.270395Q1.76539 0.229537 1.85579 0.194635Q1.9462 0.159734 2.03873 0.130944Q2.13126 0.102154 2.2255 0.0796051Q2.31975 0.0570559 2.41529 0.0408476Q2.51083 0.0246394 2.60724 0.0148445Q2.70365 0.00504954 2.8005 0.00171159Q2.89735 -0.00162635 2.9942 0.00150757Q3.09106 0.0046415 3.18749 0.0142333Q3.28392 0.0238251 3.37949 0.0398321Q3.47507 0.055839 3.56936 0.0781897Q3.66365 0.10054 3.75624 0.129135Q3.84884 0.15773 3.93931 0.192441Q4.02979 0.227152 4.11774 0.267825Q4.2057 0.308498 4.29075 0.354951Q4.37579 0.401404 4.45755 0.45343Z" fill="#FFFFFF" />
</svg>